<svg width="72" height="72" viewBox="0 0 72 72" fill="none" xmlns="http://www.w3.org/2000/svg">
<path d="M36 6C19.47 6 6 19.47 6 36C6 52.53 19.47 66 36 66C52.53 66 66 52.53 66 36C66 19.47 52.53 6 36 6ZM49.05 46.71C48.63 47.43 47.88 47.82 47.1 47.82C46.71 47.82 46.32 47.73 45.96 47.49L36.66 41.94C34.35 40.56 32.64 37.53 32.64 34.86V22.56C32.64 21.33 33.66 20.31 34.89 20.31C36.12 20.31 37.14 21.33 37.14 22.56V34.86C37.14 35.94 38.04 37.53 38.97 38.07L48.27 43.62C49.35 44.25 49.71 45.63 49.05 46.71Z" fill="#F9290D"/>
</svg>
