<svg width="72" height="72" viewBox="0 0 72 72" fill="none" xmlns="http://www.w3.org/2000/svg">
<path d="M36 55.5V58.14C36 63.75 33.75 66 28.11 66H13.86C9.51 66 6 62.49 6 58.14V43.89C6 38.25 8.25 36 13.86 36H16.5V46.5C16.5 51.48 20.52 55.5 25.5 55.5H36Z" fill="#F9290D"/>
<path d="M51 40.5V43.11C51 47.46 47.46 51 43.11 51H28.86C23.25 51 21 48.75 21 43.11V28.86C21 24.51 24.51 21 28.86 21H31.5V31.5C31.5 36.48 35.52 40.5 40.5 40.5H51Z" fill="#F9290D"/>
<path d="M66 13.86V28.11C66 33.75 63.75 36 58.11 36H43.86C38.25 36 36 33.75 36 28.11V13.86C36 8.25 38.25 6 43.86 6H58.11C63.75 6 66 8.25 66 13.86Z" fill="#F9290D"/>
</svg>
