<svg width="164" height="39" viewBox="0 0 164 39" fill="none" xmlns="http://www.w3.org/2000/svg">
<path fill-rule="evenodd" clip-rule="evenodd" d="M17.8277 30.0094L27.2732 22.4903V22.3647H18.2963C17.6113 22.3647 17.0525 21.8084 17.0525 21.1264V16.8375C17.0525 16.1556 17.6113 15.5993 18.2963 15.5993H32.8433C33.5282 15.5993 34.087 16.1556 34.087 16.8375V22.3826V25.1821C34.087 25.5769 33.9248 25.9178 33.6184 26.1511L17.8277 38.7308C17.359 39.0897 16.7281 39.0897 16.2594 38.7308L0.468675 26.1511C0.162235 25.8999 0 25.5769 0 25.1821V12.8177C0 12.4229 0.162235 12.082 0.468675 11.8487L14.9976 0.273943C15.3761 -0.0311274 15.8809 -0.0849667 16.3135 0.130377C16.7641 0.345722 17.0165 0.758461 17.0165 1.24299V6.75221C17.0165 7.14701 16.8543 7.48797 16.5478 7.72126L7.26445 15.1147C6.95801 15.366 6.79578 15.689 6.79578 16.0838V21.934C6.79578 22.3288 6.95801 22.6697 7.26445 22.903L16.2414 30.0453C16.7281 30.3862 17.359 30.3862 17.8277 30.0094Z" fill="#212121"/>
<path d="M68.8229 18.3088H72.2478C73.1851 18.3088 73.8881 18.0755 74.3388 17.6268C74.8075 17.1782 75.0418 16.5681 75.0418 15.7964C75.0418 15.0248 74.8255 14.3967 74.3748 13.9301C73.9242 13.4635 73.2212 13.2123 72.2478 13.2123H68.8229V18.3088ZM64.2082 29.8297C63.9919 29.8297 63.8116 29.7579 63.6674 29.6143C63.5232 29.4708 63.4511 29.2913 63.4511 29.0939V9.83856C63.4511 9.62322 63.5232 9.44377 63.6674 9.3002C63.8116 9.15664 63.9919 9.08486 64.2082 9.08486H72.3019C74.8796 9.08486 76.8985 9.67705 78.3766 10.8435C79.8367 12.0099 80.5758 13.6789 80.5758 15.8323C80.5758 17.2321 80.2333 18.4164 79.5663 19.3855C78.8993 20.3545 77.9981 21.0903 76.8805 21.5748L80.9543 28.8606C81.0084 28.9862 81.0444 29.0939 81.0444 29.1836C81.0444 29.3452 80.9723 29.4887 80.8462 29.6143C80.72 29.74 80.5758 29.8117 80.4135 29.8117H76.4478C76.0693 29.8117 75.7989 29.722 75.6186 29.5246C75.4384 29.3452 75.3122 29.1657 75.2401 29.0042L71.8512 22.49H68.8229V29.076C68.8229 29.2734 68.7507 29.4528 68.6065 29.5964C68.4623 29.74 68.2821 29.8117 68.0477 29.8117H64.2082V29.8297ZM151.778 18.3088H155.203C156.141 18.3088 156.844 18.0755 157.294 17.6268C157.763 17.1782 157.997 16.5681 157.997 15.7964C157.997 15.0248 157.781 14.3967 157.33 13.9301C156.88 13.4635 156.177 13.2123 155.203 13.2123H151.778V18.3088ZM147.164 29.8297C146.947 29.8297 146.767 29.7579 146.623 29.6143C146.479 29.4708 146.407 29.2913 146.407 29.0939V9.83856C146.407 9.62322 146.479 9.44377 146.623 9.3002C146.767 9.15664 146.947 9.08486 147.164 9.08486H155.257C157.835 9.08486 159.854 9.67705 161.332 10.8435C162.792 12.0099 163.531 13.6789 163.531 15.8323C163.531 17.2321 163.189 18.4164 162.522 19.3855C161.855 20.3545 160.953 21.0903 159.836 21.5748L163.91 28.8606C163.964 28.9862 164 29.0939 164 29.1836C164 29.3452 163.928 29.4887 163.802 29.6143C163.675 29.74 163.531 29.8117 163.369 29.8117H159.403C159.025 29.8117 158.754 29.722 158.574 29.5246C158.394 29.3272 158.268 29.1657 158.195 29.0042L154.807 22.5259H151.778V29.1119C151.778 29.3093 151.706 29.4887 151.562 29.6323C151.418 29.7758 151.237 29.8476 151.003 29.8476H147.164V29.8297ZM127.605 29.8297C127.389 29.8297 127.209 29.7579 127.065 29.6143C126.92 29.4708 126.848 29.2913 126.848 29.0939V9.83856C126.848 9.62322 126.92 9.44377 127.065 9.3002C127.209 9.15664 127.389 9.08486 127.605 9.08486H141.503C141.72 9.08486 141.9 9.15664 142.044 9.3002C142.188 9.44377 142.261 9.62322 142.261 9.83856V12.6201C142.261 12.8354 142.188 13.0149 142.044 13.1585C141.9 13.302 141.72 13.3738 141.503 13.3738H132.004V17.3756H140.836C141.053 17.3756 141.233 17.4474 141.377 17.591C141.521 17.7345 141.594 17.914 141.594 18.1473V20.7314C141.594 20.9288 141.521 21.1082 141.377 21.2518C141.233 21.3954 141.053 21.4671 140.836 21.4671H132.004V25.5946H141.738C141.954 25.5946 142.134 25.6664 142.279 25.8099C142.423 25.9535 142.495 26.1329 142.495 26.3483V29.1298C142.495 29.3272 142.423 29.5067 142.279 29.6502C142.134 29.7938 141.954 29.8656 141.738 29.8656H127.605V29.8297ZM111.634 29.8297C111.292 29.8297 111.022 29.74 110.823 29.5605C110.625 29.3811 110.481 29.1837 110.409 28.9324L104.334 9.96418C104.298 9.87446 104.28 9.78473 104.28 9.695C104.28 9.5335 104.352 9.38993 104.478 9.26431C104.604 9.13869 104.767 9.06692 104.947 9.06692H108.642C108.967 9.06692 109.201 9.15664 109.381 9.3361C109.561 9.51555 109.67 9.67706 109.706 9.83856L113.924 23.5309L118.124 9.83856C118.178 9.67706 118.304 9.51555 118.466 9.3361C118.629 9.15664 118.881 9.06692 119.187 9.06692H122.901C123.063 9.06692 123.207 9.13869 123.333 9.26431C123.459 9.38993 123.532 9.5335 123.532 9.695C123.532 9.76679 123.514 9.85651 123.478 9.96418L117.421 28.9504C117.367 29.1836 117.241 29.399 117.042 29.5784C116.844 29.7579 116.574 29.8476 116.213 29.8476H111.634V29.8297ZM93.0858 25.8638C94.1313 25.8638 94.9965 25.5407 95.6635 24.9127C96.3304 24.2846 96.6729 23.2796 96.727 21.8978C96.7631 21.0365 96.7811 20.211 96.7811 19.4393C96.7811 18.6677 96.7631 17.8601 96.727 17.0346C96.691 16.1015 96.5107 15.3478 96.2043 14.7735C95.8978 14.1993 95.4832 13.7686 94.9424 13.4815C94.4017 13.2123 93.7888 13.0687 93.1038 13.0687C92.4368 13.0687 91.8239 13.2123 91.2832 13.4815C90.7424 13.7506 90.3278 14.1813 90.0033 14.7735C89.6789 15.3478 89.4986 16.1194 89.4626 17.0346C89.4445 17.8601 89.4265 18.6677 89.4265 19.4393C89.4265 20.211 89.4445 21.0365 89.4626 21.8978C89.5166 23.2796 89.8772 24.2846 90.5441 24.9127C91.2111 25.5407 92.0583 25.8638 93.0858 25.8638ZM93.0858 30.1347C91.2651 30.1347 89.6789 29.8297 88.3269 29.2375C86.975 28.6453 85.9295 27.748 85.1724 26.5636C84.4153 25.3613 84.0007 23.8718 83.9286 22.0773C83.9106 21.2339 83.8925 20.3725 83.8925 19.5111C83.8925 18.6497 83.9106 17.8063 83.9286 16.9449C84.0007 15.1683 84.4333 13.6789 85.1904 12.4586C85.9475 11.2383 87.011 10.3231 88.381 9.71295C89.7329 9.1028 91.3192 8.79774 93.1038 8.79774C94.9064 8.79774 96.4927 9.1028 97.8446 9.71295C99.1966 10.3231 100.26 11.2383 101.035 12.4586C101.81 13.6789 102.225 15.1683 102.279 16.9449C102.315 17.7883 102.333 18.6497 102.333 19.5111C102.333 20.3725 102.315 21.2159 102.279 22.0773C102.225 23.8718 101.81 25.3792 101.035 26.5636C100.278 27.766 99.2146 28.6453 97.8626 29.2375C96.5107 29.8297 94.9244 30.1347 93.0858 30.1347ZM50.1119 30.1347C48.2192 30.1347 46.5969 29.8297 45.2449 29.2016C43.893 28.5735 42.8295 27.6762 42.0904 26.4739C41.3513 25.2716 40.9367 23.818 40.8466 22.0952C40.8286 21.2518 40.8105 20.3366 40.8105 19.3855C40.8105 18.4344 40.8286 17.5192 40.8466 16.6399C40.9187 14.953 41.3513 13.5353 42.0904 12.3689C42.8475 11.2024 43.911 10.3231 45.281 9.695C46.6509 9.08486 48.2553 8.77979 50.0939 8.77979C51.5901 8.77979 52.906 8.95925 54.0596 9.3361C55.2133 9.695 56.1867 10.1975 56.9618 10.8076C57.7369 11.4178 58.3498 12.0997 58.7644 12.8175C59.179 13.5532 59.3953 14.2711 59.4133 14.9889C59.4133 15.1683 59.3412 15.3119 59.215 15.4375C59.0889 15.5631 58.9266 15.617 58.7464 15.617H54.4021C54.1858 15.617 54.0236 15.5811 53.9154 15.5093C53.8072 15.4375 53.7171 15.3298 53.627 15.2042C53.4828 14.8992 53.2845 14.5941 53.0141 14.2711C52.7437 13.9481 52.3832 13.6609 51.9145 13.4276C51.4459 13.1943 50.833 13.0687 50.0759 13.0687C48.9583 13.0687 48.075 13.3738 47.4261 13.966C46.7771 14.5582 46.4166 15.5093 46.3625 16.8014C46.3085 18.5062 46.3085 20.211 46.3625 21.9517C46.4166 23.3335 46.7952 24.3384 47.4621 24.9485C48.1291 25.5587 49.0484 25.8638 50.166 25.8638C50.9051 25.8638 51.554 25.7381 52.1489 25.4869C52.7257 25.2357 53.1944 24.8229 53.5369 24.2846C53.8794 23.7462 54.0416 23.0463 54.0416 22.2029V21.6466H51.2476C51.0313 21.6466 50.851 21.5748 50.7068 21.4313C50.5626 21.2877 50.4905 21.1082 50.4905 20.875V18.6856C50.4905 18.4703 50.5626 18.2908 50.7068 18.1293C50.851 17.9858 51.0313 17.914 51.2476 17.914H58.7464C58.9627 17.914 59.1429 17.9858 59.2871 18.1293C59.4313 18.2729 59.5034 18.4523 59.5034 18.6856V22.0593C59.5034 23.7641 59.1249 25.2177 58.3498 26.4201C57.5747 27.6224 56.4751 28.5556 55.0691 29.1836C53.645 29.8117 51.9866 30.1347 50.1119 30.1347Z" fill="#212121"/>
</svg>
